<?xml version="1.0" encoding="UTF-8"?>
<svg width="149px" height="32px" viewBox="0 0 149 32" version="1.1" xmlns="http://www.w3.org/2000/svg" xmlns:xlink="http://www.w3.org/1999/xlink">
    <!-- Generator: Sketch 50.2 (55047) - http://www.bohemiancoding.com/sketch -->
    <title>Logo</title>
    <desc>Created with Sketch.</desc>
    <defs></defs>
    <g id="Welcome" stroke="none" stroke-width="1" fill="none" fill-rule="evenodd">
        <g id="Desktop" transform="translate(-549.000000, -59.000000)" fill="#4A4A4A">
            <g id="Logo" transform="translate(548.000000, 55.000000)">
                <path d="M7.59179688,28.7636719 L20.4941406,28.7636719 L20.4941406,33 L1,33 L1,29.90625 L13.65625,11.6777344 L1.01757812,11.6777344 L1.01757812,7.40625 L20.2128906,7.40625 L20.2128906,10.4296875 L7.59179688,28.7636719 Z M32.5671875,33.3515625 C29.778111,33.3515625 27.5076259,32.4961023 25.7556641,30.7851562 C24.0037022,29.0742102 23.1277344,26.7949361 23.1277344,23.9472656 L23.1277344,23.4550781 C23.1277344,21.5449123 23.4968713,19.8369216 24.2351562,18.3310547 C24.9734412,16.8251878 26.0193292,15.6650431 27.3728516,14.8505859 C28.7263739,14.0361287 30.2703038,13.6289062 32.0046875,13.6289062 C34.606263,13.6289062 36.6540941,14.4492105 38.1482422,16.0898438 C39.6423903,17.730477 40.3894531,20.0566256 40.3894531,23.0683594 L40.3894531,25.1425781 L28.278125,25.1425781 C28.4421883,26.3847718 28.9373005,27.3808556 29.7634766,28.1308594 C30.5896526,28.8808631 31.6355405,29.2558594 32.9011719,29.2558594 C34.8582129,29.2558594 36.3874945,28.5468821 37.4890625,27.1289062 L39.9851562,29.9238281 C39.2234337,31.0019585 38.192194,31.8427704 36.8914062,32.4462891 C35.5906185,33.0498077 34.1492266,33.3515625 32.5671875,33.3515625 Z M31.9871094,17.7421875 C30.9792918,17.7421875 30.1619172,18.0820279 29.5349609,18.7617188 C28.9080047,19.4414096 28.5066415,20.4140562 28.3308594,21.6796875 L35.3972656,21.6796875 L35.3972656,21.2753906 C35.373828,20.150385 35.0691435,19.2802765 34.4832031,18.6650391 C33.8972627,18.0498016 33.0652398,17.7421875 31.9871094,17.7421875 Z M48.6480469,13.9804688 L48.80625,16.1777344 C50.1656318,14.4785071 51.9878792,13.6289062 54.2730469,13.6289062 C56.2886819,13.6289062 57.7886669,14.2206972 58.7730469,15.4042969 C59.7574268,16.5878965 60.261328,18.3574101 60.2847656,20.7128906 L60.2847656,33 L55.2046875,33 L55.2046875,20.8359375 C55.2046875,19.7578071 54.9703148,18.9755884 54.5015625,18.4892578 C54.0328101,18.0029273 53.2535211,17.7597656 52.1636719,17.7597656 C50.7339772,17.7597656 49.6617223,18.3691345 48.946875,19.5878906 L48.946875,33 L43.8667969,33 L43.8667969,13.9804688 L48.6480469,13.9804688 Z M85.2601562,24.4746094 C85.0609365,27.2285294 84.0443451,29.3964765 82.2103515,30.9785156 C80.376358,32.5605548 77.95939,33.3515625 74.959375,33.3515625 C71.6781086,33.3515625 69.0970797,32.2470814 67.2162109,30.0380859 C65.3353421,27.8290905 64.3949218,24.7968943 64.3949218,20.9414062 L64.3949218,19.3769531 C64.3949218,16.9160033 64.8285113,14.7480562 65.6957031,12.8730469 C66.5628949,10.9980375 67.8021403,9.55957532 69.4134765,8.55761719 C71.0248127,7.55565905 72.8968643,7.0546875 75.0296875,7.0546875 C77.9828272,7.0546875 80.3617097,7.84569521 82.1664062,9.42773438 C83.9711027,11.0097735 85.0140611,13.2304545 85.2953125,16.0898438 L80.021875,16.0898438 C79.8929681,14.4374917 79.4330117,13.2392615 78.6419922,12.4951172 C77.8509726,11.7509728 76.6468831,11.3789062 75.0296875,11.3789062 C73.2718662,11.3789062 71.9564496,12.0087828 71.0833984,13.2685547 C70.2103472,14.5283266 69.7621095,16.4824086 69.7386718,19.1308594 L69.7386718,21.0644531 C69.7386718,23.830092 70.157613,25.8515561 70.9955078,27.1289062 C71.8334026,28.4062564 73.1546784,29.0449219 74.959375,29.0449219 C76.5882894,29.0449219 77.8040975,28.6728553 78.6068359,27.9287109 C79.4095743,27.1845666 79.8695306,26.0332109 79.9867187,24.4746094 L85.2601562,24.4746094 Z M88.2980468,23.3144531 C88.2980468,21.4277249 88.6613244,19.7461011 89.3878906,18.2695312 C90.1144567,16.7929614 91.1603447,15.6503947 92.5255859,14.8417969 C93.8908271,14.0331991 95.4757722,13.6289062 97.2804687,13.6289062 C99.8468878,13.6289062 101.941593,14.4140546 103.564648,15.984375 C105.187703,17.5546954 106.092968,19.6874865 106.280469,22.3828125 L106.315625,23.6835938 C106.315625,26.6015771 105.50118,28.942374 103.872266,30.7060547 C102.243351,32.4697354 100.057826,33.3515625 97.315625,33.3515625 C94.5734237,33.3515625 92.3849691,32.472665 90.7501953,30.7148438 C89.1154215,28.9570225 88.2980468,26.5664214 88.2980468,23.5429688 L88.2980468,23.3144531 Z M93.378125,23.6835938 C93.378125,25.4882903 93.7179653,26.8681593 94.3976562,27.8232422 C95.0773471,28.7783251 96.0499936,29.2558594 97.315625,29.2558594 C98.5460999,29.2558594 99.5070277,28.7841844 100.198437,27.8408203 C100.889847,26.8974562 101.235547,25.3886822 101.235547,23.3144531 C101.235547,21.544913 100.889847,20.173833 100.198437,19.2011719 C99.5070277,18.2285108 98.5343812,17.7421875 97.2804687,17.7421875 C96.038275,17.7421875 95.0773471,18.2255811 94.3976562,19.1923828 C93.7179653,20.1591845 93.378125,21.6562399 93.378125,23.6835938 Z M109.353516,23.3496094 C109.353516,20.3847508 110.018548,18.0234463 111.348633,16.265625 C112.678718,14.5078037 114.498035,13.6289062 116.806641,13.6289062 C118.658212,13.6289062 120.187494,14.3203056 121.394531,15.703125 L121.394531,6 L126.492187,6 L126.492187,33 L121.904297,33 L121.658203,30.9785156 C120.392572,32.5605548 118.763682,33.3515625 116.771484,33.3515625 C114.533192,33.3515625 112.737311,32.4697354 111.383789,30.7060547 C110.030267,28.942374 109.353516,26.4902501 109.353516,23.3496094 Z M114.433594,23.71875 C114.433594,25.5000089 114.744137,26.8652296 115.365234,27.8144531 C115.986331,28.7636766 116.888666,29.2382812 118.072266,29.2382812 C119.642586,29.2382812 120.749997,28.5761785 121.394531,27.2519531 L121.394531,19.7460938 C120.761716,18.4218684 119.666023,17.7597656 118.107422,17.7597656 C115.658191,17.7597656 114.433594,19.7460739 114.433594,23.71875 Z M139.883594,33.3515625 C137.094517,33.3515625 134.824032,32.4961023 133.07207,30.7851562 C131.320108,29.0742102 130.444141,26.7949361 130.444141,23.9472656 L130.444141,23.4550781 C130.444141,21.5449123 130.813277,19.8369216 131.551562,18.3310547 C132.289847,16.8251878 133.335735,15.6650431 134.689258,14.8505859 C136.04278,14.0361287 137.58671,13.6289062 139.321094,13.6289062 C141.922669,13.6289062 143.9705,14.4492105 145.464648,16.0898438 C146.958796,17.730477 147.705859,20.0566256 147.705859,23.0683594 L147.705859,25.1425781 L135.594531,25.1425781 C135.758594,26.3847718 136.253707,27.3808556 137.079883,28.1308594 C137.906059,28.8808631 138.951947,29.2558594 140.217578,29.2558594 C142.174619,29.2558594 143.703901,28.5468821 144.805469,27.1289062 L147.301562,29.9238281 C146.53984,31.0019585 145.5086,31.8427704 144.207812,32.4462891 C142.907025,33.0498077 141.465633,33.3515625 139.883594,33.3515625 Z M139.303516,17.7421875 C138.295698,17.7421875 137.478323,18.0820279 136.851367,18.7617188 C136.224411,19.4414096 135.823048,20.4140562 135.647266,21.6796875 L142.713672,21.6796875 L142.713672,21.2753906 C142.690234,20.150385 142.38555,19.2802765 141.799609,18.6650391 C141.213669,18.0498016 140.381646,17.7421875 139.303516,17.7421875 Z M62,4 L150,4 L150,36 L62,36 L62,4 Z" id="ZenCode"></path>
            </g>
        </g>
    </g>
</svg>